<?xml version="1.0" standalone="no"?>
<!DOCTYPE svg PUBLIC "-//W3C//DTD SVG 20010904//EN"
 "http://www.w3.org/TR/2001/REC-SVG-20010904/DTD/svg10.dtd">
<svg version="1.0" xmlns="http://www.w3.org/2000/svg"
 width="1502.000000pt" height="1502.000000pt" viewBox="0 0 1502.000000 1502.000000"
 preserveAspectRatio="xMidYMid meet">
<metadata>
Created by potrace 1.14, written by Peter Selinger 2001-2017
</metadata>
<g transform="translate(0.000000,1502.000000) scale(0.100000,-0.100000)"
fill="#000000" stroke="none">
<path d="M6975 14891 c-2 -2 -68 -4 -147 -5 -79 -1 -148 -5 -155 -9 -6 -4 -14
-3 -17 2 -4 6 -18 6 -36 1 -17 -5 -30 -5 -30 -1 0 3 -9 7 -20 7 -11 0 -20 -3
-20 -6 0 -3 -51 -6 -113 -7 -61 -1 -114 -2 -117 -3 -3 -1 -31 -2 -62 -2 -35
-1 -58 -5 -58 -12 0 -7 -3 -7 -8 -1 -9 13 -42 15 -42 3 0 -6 -6 -5 -15 2 -8 7
-15 8 -15 3 0 -5 -29 -8 -65 -8 -36 1 -65 -1 -65 -4 0 -3 -37 -7 -83 -8 -163
-3 -237 -7 -237 -13 0 -10 -44 -6 -52 5 -5 6 -8 6 -8 -1 0 -7 -21 -11 -55 -10
-30 1 -55 -1 -55 -4 0 -3 -24 -6 -53 -7 -123 -4 -184 -10 -196 -17 -8 -5 -16
-4 -21 4 -5 7 -10 8 -14 2 -3 -5 -19 -8 -36 -7 -17 1 -33 -2 -36 -7 -4 -6 -10
-5 -15 3 -5 8 -9 9 -9 4 0 -6 -16 -10 -35 -10 -19 1 -35 -2 -35 -7 0 -5 -9 -4
-20 2 -11 6 -20 7 -20 2 0 -4 -18 -8 -40 -7 -22 1 -40 -2 -40 -5 0 -3 -16 -5
-35 -4 -19 1 -38 -2 -41 -8 -3 -5 -11 -4 -20 3 -8 6 -14 8 -14 3 0 -5 -15 -10
-32 -10 -90 -3 -137 -8 -134 -13 2 -3 -18 -5 -45 -5 -30 1 -49 -3 -49 -10 0
-6 -5 -4 -10 4 -5 8 -10 11 -10 5 0 -5 -17 -11 -38 -11 -20 -1 -68 -5 -107 -9
-38 -4 -80 -8 -92 -8 -13 -1 -23 -4 -23 -7 0 -3 -25 -5 -55 -5 -30 0 -55 -3
-55 -7 0 -3 -8 -5 -17 -3 -10 1 -24 -2 -30 -8 -9 -6 -13 -6 -13 2 0 7 -8 8
-27 0 -16 -6 -29 -10 -30 -10 -2 1 -4 1 -5 0 -2 0 -23 -2 -48 -4 -25 -1 -45
-3 -45 -4 0 -1 -18 -4 -40 -6 -55 -6 -110 -13 -110 -16 0 -1 -18 -3 -40 -4
-22 -2 -42 -4 -45 -5 -3 -1 -9 -2 -13 -1 -4 1 -17 -4 -29 -10 -16 -9 -19 -8
-13 2 6 8 4 10 -4 4 -7 -4 -27 -9 -44 -11 -18 -1 -48 -6 -67 -10 -19 -3 -50
-7 -67 -8 -18 0 -33 -3 -33 -6 0 -3 -12 -5 -27 -6 -16 -1 -44 -4 -63 -8 -19
-3 -48 -8 -65 -10 -16 -2 -43 -7 -60 -11 -16 -3 -40 -6 -53 -5 -13 0 -33 -5
-44 -11 -16 -9 -19 -8 -13 2 6 8 4 10 -6 4 -7 -5 -23 -10 -34 -12 -53 -7 -83
-12 -115 -18 -19 -4 -44 -7 -55 -9 -11 -1 -24 -4 -30 -6 -5 -3 -21 -5 -35 -5
-14 0 -28 -4 -32 -10 -5 -6 -8 -5 -8 3 0 10 -4 10 -22 0 -22 -11 -36 -14 -101
-17 -16 0 -26 -4 -23 -9 2 -4 -16 -7 -40 -7 -24 1 -44 -2 -44 -6 0 -4 -8 -8
-17 -8 -10 0 -34 -3 -53 -6 -19 -3 -49 -7 -65 -8 -17 -2 -35 -6 -41 -10 -6 -4
-32 -8 -58 -9 -25 -2 -46 -7 -46 -12 0 -4 -11 -6 -25 -4 -14 3 -25 2 -25 -1 0
-4 -10 -7 -22 -8 -23 -1 -73 -10 -73 -13 0 -1 -11 -4 -25 -6 -78 -11 -106 -17
-119 -28 -12 -9 -13 -8 -6 3 6 11 5 12 -6 5 -8 -4 -23 -10 -34 -11 -11 -2 -27
-6 -35 -9 -15 -6 -64 -14 -107 -17 -13 0 -23 -4 -23 -8 0 -4 -8 -6 -17 -4 -10
1 -24 -2 -30 -8 -9 -6 -13 -5 -13 4 0 12 -2 12 -9 0 -5 -8 -30 -16 -57 -18
-26 -1 -52 -7 -58 -12 -7 -6 -27 -9 -45 -9 -18 1 -36 -3 -39 -8 -7 -9 -11 -10
-63 -12 -19 -1 -28 -6 -23 -13 5 -8 1 -8 -14 0 -16 8 -24 8 -35 -3 -11 -11
-17 -12 -26 -3 -8 8 -11 8 -11 -1 0 -7 -3 -11 -7 -11 -5 1 -10 0 -13 -1 -3 -1
-14 -3 -25 -5 -55 -10 -82 -15 -105 -20 -14 -4 -31 -7 -38 -7 -7 -1 -11 -7 -8
-13 2 -7 0 -18 -4 -25 -5 -7 -5 -23 0 -35 4 -11 4 -28 -1 -37 -6 -11 -5 -19 1
-23 8 -5 7 -11 -1 -21 -9 -11 -9 -14 1 -14 9 0 10 -3 1 -13 -8 -10 -7 -17 1
-25 8 -8 9 -12 1 -12 -12 0 -12 -18 -1 -35 4 -6 3 -17 -2 -25 -4 -7 -4 -24 0
-36 6 -15 5 -26 -1 -30 -6 -3 -6 -10 -1 -17 5 -7 6 -21 2 -32 -4 -11 -4 -30 1
-42 5 -13 4 -25 -1 -28 -6 -4 -7 -13 -1 -24 5 -9 6 -23 1 -31 -4 -7 -4 -24 0
-36 5 -13 6 -26 1 -28 -7 -4 -7 -40 -1 -56 1 -3 2 -9 0 -15 -7 -35 -6 -85 2
-85 5 0 5 -7 -1 -17 -5 -10 -5 -26 0 -40 5 -14 4 -25 -2 -29 -6 -3 -6 -10 -1
-17 5 -7 6 -21 2 -32 -4 -11 -4 -30 1 -42 5 -13 4 -25 -1 -28 -6 -4 -7 -13 -1
-24 5 -9 6 -23 1 -31 -4 -7 -4 -24 0 -36 5 -13 6 -26 1 -28 -7 -4 -7 -40 -1
-56 1 -3 2 -9 0 -15 -6 -35 -6 -85 2 -85 5 0 5 -7 0 -17 -5 -10 -6 -27 -2 -38
4 -11 3 -25 -2 -32 -5 -7 -5 -14 1 -17 6 -4 7 -15 1 -30 -5 -15 -5 -27 3 -35
6 -6 7 -11 1 -11 -8 0 -11 -93 -4 -125 1 -5 1 -12 0 -15 -8 -21 -6 -40 3 -40
8 0 8 -3 2 -8 -14 -10 -14 -72 -1 -72 7 0 7 -3 1 -8 -5 -4 -10 -18 -10 -32 0
-14 5 -28 10 -32 7 -5 6 -8 -1 -8 -11 0 -11 -70 0 -89 4 -6 3 -11 -1 -11 -5 0
-9 -13 -8 -30 0 -16 4 -30 8 -30 5 0 5 -4 2 -10 -11 -17 -14 -50 -5 -50 5 0 5
-13 0 -29 -4 -15 -4 -34 0 -41 4 -6 4 -27 0 -46 -5 -19 -4 -32 1 -28 5 3 9 0
9 -5 0 -6 -5 -11 -11 -11 -7 0 -8 -5 -3 -12 11 -16 11 -39 1 -55 -5 -7 -4 -13
2 -13 6 0 6 -11 1 -29 -6 -21 -5 -31 3 -35 9 -3 8 -7 -2 -14 -7 -5 -9 -12 -4
-15 9 -6 8 -99 -2 -125 -2 -7 -1 -10 5 -7 8 5 8 -22 0 -60 -1 -5 -1 -12 0 -15
1 -3 4 -58 5 -122 2 -64 6 -121 9 -127 4 -5 2 -12 -4 -16 -6 -4 -8 -10 -5 -15
9 -14 9 -256 1 -269 -4 -6 -4 -11 1 -11 7 0 15 -158 13 -242 -1 -7 1 -39 2
-71 2 -31 -1 -57 -6 -57 -5 0 -4 -6 1 -12 4 -7 8 -68 8 -135 0 -68 2 -123 5
-123 3 0 4 -45 4 -100 -1 -66 2 -97 9 -93 6 4 7 1 1 -8 -15 -24 -16 -62 -2
-70 7 -5 8 -9 2 -9 -6 0 -10 -10 -8 -22 1 -13 3 -23 4 -23 1 0 3 -10 4 -22 2
-13 -1 -23 -6 -23 -5 0 -6 -5 -2 -12 4 -6 9 -64 10 -127 2 -64 6 -168 8 -231
3 -63 8 -180 11 -260 7 -183 10 -224 19 -238 3 -6 2 -13 -3 -17 -6 -3 -8 -11
-6 -18 11 -30 13 -67 4 -67 -6 0 -7 -6 -2 -12 4 -7 8 -20 8 -28 0 -8 4 -21 8
-27 5 -7 4 -13 -1 -13 -5 0 -8 -12 -5 -27 2 -16 5 -55 6 -88 1 -33 6 -66 11
-74 7 -10 6 -12 -4 -6 -9 5 -11 4 -6 -3 4 -6 8 -47 10 -91 3 -44 7 -85 11 -91
3 -5 1 -10 -6 -10 -7 0 -8 -5 -3 -12 5 -7 9 -34 9 -60 0 -27 4 -48 8 -48 4 0
3 -8 -2 -19 -6 -10 -8 -21 -4 -24 7 -7 11 -50 13 -152 1 -39 7 -73 14 -77 8
-6 7 -8 -2 -8 -7 0 -10 -5 -6 -12 4 -6 8 -38 10 -72 1 -34 5 -95 9 -136 4 -41
8 -97 10 -125 2 -27 6 -70 9 -95 7 -71 19 -213 19 -237 1 -13 5 -23 9 -23 5 0
4 -9 -2 -19 -5 -11 -6 -22 -2 -25 5 -3 9 -24 11 -48 4 -57 9 -103 11 -103 1 0
4 -18 5 -40 2 -22 7 -67 10 -100 3 -33 6 -72 7 -87 0 -16 3 -28 7 -28 3 0 7
-21 8 -48 2 -73 14 -166 21 -172 4 -3 7 -18 8 -35 2 -82 10 -145 17 -145 5 0
5 -9 2 -20 -3 -11 -3 -20 2 -20 5 0 8 -12 7 -27 -1 -16 4 -34 10 -42 9 -12 8
-13 -3 -6 -10 6 -12 4 -6 -5 4 -7 10 -31 13 -54 2 -23 9 -49 14 -60 7 -13 7
-16 -1 -12 -8 5 -8 0 -1 -19 6 -15 10 -39 10 -55 0 -16 4 -31 9 -34 5 -3 8
-19 7 -36 -1 -16 1 -30 5 -30 4 0 5 -9 2 -20 -3 -11 -1 -20 4 -20 7 0 13 -30
16 -87 0 -7 4 -13 9 -13 5 0 7 -4 4 -8 -3 -4 -1 -26 5 -48 5 -21 11 -55 14
-74 3 -19 9 -42 12 -50 3 -8 8 -26 10 -40 2 -14 6 -32 10 -40 3 -8 7 -22 8
-30 7 -35 14 -61 22 -73 4 -6 6 -19 5 -28 -2 -9 6 -33 18 -54 11 -20 16 -34
12 -31 -5 3 1 -23 14 -58 12 -35 20 -66 17 -70 -3 -3 1 -8 10 -12 9 -3 14 -14
12 -25 -2 -10 0 -21 6 -24 5 -4 9 -15 9 -26 0 -10 5 -19 12 -19 6 0 9 -3 6 -6
-6 -6 24 -99 35 -111 4 -3 7 -15 7 -25 0 -10 5 -18 11 -18 5 0 8 -4 5 -8 -2
-4 1 -21 8 -37 20 -45 33 -79 34 -88 1 -4 8 -20 16 -36 9 -16 12 -31 9 -35 -4
-3 -1 -6 5 -6 7 0 12 -6 12 -13 0 -7 10 -33 21 -57 12 -24 23 -49 24 -54 10
-39 19 -56 27 -56 5 0 7 -4 3 -9 -3 -5 0 -15 7 -23 7 -7 14 -20 16 -28 2 -8
15 -37 29 -65 13 -27 25 -52 25 -55 0 -13 42 -97 57 -114 9 -11 11 -16 4 -12
-13 7 35 -85 50 -95 5 -3 8 -10 8 -15 -1 -17 10 -44 20 -44 5 0 8 -4 7 -8 -3
-8 61 -141 72 -152 12 -12 30 -51 30 -64 0 -8 4 -16 8 -18 12 -5 52 -77 52
-94 0 -8 5 -12 10 -9 9 6 14 -8 11 -27 0 -5 3 -8 9 -8 5 0 10 -6 10 -13 0 -7
9 -23 20 -35 11 -12 21 -25 21 -29 1 -16 43 -83 51 -83 5 0 7 -4 3 -9 -3 -5 1
-16 9 -24 8 -8 12 -17 9 -21 -4 -3 -2 -6 4 -6 6 0 16 -14 22 -30 5 -17 15 -30
21 -30 6 0 8 -4 5 -10 -3 -5 -1 -10 4 -10 6 0 11 -7 11 -15 0 -8 5 -15 10 -15
6 0 10 -4 10 -10 0 -17 47 -79 55 -72 5 4 5 2 2 -5 -9 -15 2 -45 14 -37 5 3 9
-3 9 -13 0 -10 9 -25 20 -33 11 -8 20 -22 20 -32 0 -9 9 -22 20 -28 11 -6 20
-17 20 -25 0 -8 8 -24 18 -34 33 -38 41 -49 35 -55 -3 -3 2 -8 11 -12 9 -3 16
-15 16 -27 0 -11 3 -18 6 -14 8 8 33 -16 27 -25 -2 -5 1 -8 7 -8 6 0 9 -4 6
-8 -3 -5 4 -14 14 -22 10 -8 17 -17 14 -22 -3 -4 -1 -8 5 -8 5 0 13 -9 16 -20
4 -11 11 -18 16 -15 5 4 9 1 9 -4 0 -22 11 -39 56 -86 27 -27 49 -67 45 -80
-1 -5 0 -7 4 -3 9 8 35 -16 35 -31 0 -6 5 -11 10 -11 6 0 10 -7 10 -16 0 -8 5
-12 10 -9 6 3 10 1 10 -5 0 -6 6 -17 12 -24 7 -7 22 -24 32 -39 11 -14 24 -23
29 -20 6 3 7 1 3 -6 -5 -7 2 -22 16 -36 12 -13 41 -44 63 -70 22 -26 50 -58
63 -71 13 -13 21 -24 18 -24 -7 0 35 -48 96 -111 27 -26 48 -53 48 -59 0 -6 5
-8 10 -5 5 3 10 2 10 -4 0 -6 20 -30 44 -55 25 -24 42 -47 39 -50 -4 -3 1 -6
11 -6 9 0 14 -4 11 -10 -3 -5 1 -10 9 -10 8 0 18 -9 21 -20 4 -11 11 -18 16
-15 8 6 13 -9 10 -28 -1 -5 3 -6 9 -2 5 3 13 -1 16 -9 3 -9 12 -16 20 -16 8 0
14 -7 14 -15 0 -8 6 -15 14 -15 8 0 18 -9 21 -20 3 -11 11 -20 16 -20 6 0 7
-5 4 -10 -4 -6 -3 -10 2 -9 17 3 36 -1 30 -7 -3 -3 7 -17 24 -31 16 -14 26
-29 23 -34 -3 -5 -2 -9 3 -8 18 3 34 -1 30 -9 -3 -4 1 -13 9 -20 8 -7 14 -11
14 -8 0 3 25 -19 55 -49 30 -30 57 -55 59 -55 3 0 32 -27 65 -59 34 -33 61
-57 61 -54 0 3 8 -4 19 -15 10 -12 21 -19 25 -15 3 3 6 1 6 -6 0 -15 26 -42
33 -35 3 3 10 -4 17 -15 6 -12 18 -21 26 -21 8 0 13 -3 11 -7 -3 -5 12 -19 34
-32 21 -14 36 -28 33 -33 -3 -4 1 -8 10 -8 8 0 16 -3 18 -8 6 -15 61 -52 69
-46 5 3 6 -2 3 -10 -3 -9 -1 -16 5 -16 11 0 37 -19 72 -52 9 -9 20 -14 23 -10
3 3 6 -3 6 -12 0 -10 5 -16 12 -14 6 2 21 -5 33 -16 59 -55 84 -74 89 -68 3 3
6 -1 6 -8 0 -7 3 -10 6 -7 4 4 15 -3 25 -15 11 -11 19 -18 19 -13 0 4 9 -3 20
-16 10 -13 19 -20 20 -16 0 4 10 -1 22 -12 12 -12 40 -33 62 -48 23 -15 44
-32 48 -38 4 -5 8 -6 8 -1 0 5 8 -1 19 -12 10 -12 21 -19 25 -15 3 3 6 0 6 -7
0 -7 3 -11 6 -7 8 8 44 -25 38 -35 -3 -4 1 -5 8 -3 8 3 23 -3 35 -14 11 -11
23 -17 27 -14 3 3 8 -2 12 -11 3 -9 10 -13 15 -10 5 3 12 -2 15 -10 3 -9 10
-13 15 -10 5 3 9 0 9 -6 0 -6 5 -8 10 -5 6 3 10 -1 10 -10 0 -9 6 -15 12 -13
13 5 23 -2 60 -37 11 -11 18 -14 14 -8 -10 17 2 16 19 -1 8 -7 11 -17 7 -21
-4 -5 -2 -5 5 -1 6 3 14 2 18 -4 4 -6 10 -8 15 -5 4 3 11 -2 14 -11 3 -8 10
-12 16 -9 6 3 13 -1 16 -9 3 -9 14 -16 24 -16 10 0 20 -7 24 -15 3 -8 12 -15
21 -15 8 0 15 -5 15 -11 0 -5 4 -8 9 -4 5 3 12 1 16 -5 3 -5 21 -17 40 -26 19
-9 35 -21 35 -28 0 -6 5 -4 10 4 8 13 10 12 10 -3 0 -10 4 -16 10 -12 5 3 18
-3 30 -15 11 -11 20 -17 20 -14 0 4 7 1 15 -6 8 -6 20 -8 27 -4 7 4 10 3 5 -1
-7 -8 70 -51 85 -47 4 1 5 -5 2 -13 -5 -11 -2 -13 10 -9 9 3 16 1 16 -5 0 -6
9 -11 19 -11 11 0 26 -7 35 -15 8 -8 22 -15 30 -15 9 0 16 -4 16 -10 0 -5 9
-10 20 -10 11 0 20 -4 20 -10 0 -5 9 -10 20 -10 11 0 20 -4 20 -10 0 -5 7 -10
15 -10 8 0 15 -5 15 -12 0 -6 3 -8 6 -5 4 3 16 1 28 -5 11 -7 24 -11 29 -10 4
1 7 -3 7 -9 0 -5 5 -7 10 -4 6 3 10 1 10 -5 0 -7 7 -9 15 -6 9 3 18 -1 21 -9
4 -8 14 -15 23 -15 9 0 22 -5 29 -12 6 -6 17 -13 24 -14 30 -5 69 -25 64 -32
-3 -5 5 -8 17 -7 12 1 28 -5 36 -12 7 -8 20 -12 27 -9 8 3 14 2 14 -3 0 -5 15
-14 33 -21 71 -28 85 -34 82 -40 -2 -3 8 -7 22 -8 15 -1 35 -10 46 -20 11 -9
17 -12 14 -5 -4 6 12 2 35 -10 24 -11 46 -20 51 -19 4 1 7 -2 7 -8 0 -5 6 -7
14 -4 8 3 17 1 21 -5 3 -6 15 -11 26 -11 10 0 19 -4 19 -8 0 -5 23 -15 50 -22
28 -7 50 -16 50 -20 0 -3 10 -6 22 -7 11 -1 24 -6 27 -10 3 -4 11 -8 16 -8 24
-1 94 -29 90 -36 -3 -4 4 -5 15 -2 12 3 29 -2 42 -13 14 -13 19 -14 13 -4 -6
12 -5 13 6 3 7 -7 21 -13 31 -13 10 0 18 -4 18 -10 0 -5 3 -9 8 -8 13 5 112
-26 112 -34 0 -5 4 -6 10 -3 5 3 18 1 28 -4 11 -6 32 -12 47 -15 16 -3 31 -9
34 -14 3 -5 17 -8 31 -8 14 0 31 -3 38 -8 6 -4 12 -3 12 2 0 6 9 8 20 5 11 -3
20 -1 20 4 0 8 15 12 58 15 6 1 12 4 12 8 0 4 6 7 13 8 40 5 77 15 77 21 0 4
6 8 13 9 34 3 53 8 58 15 3 4 19 9 36 10 17 1 29 5 27 8 -4 7 84 34 99 31 4
-1 7 3 7 9 0 6 7 9 15 5 8 -3 15 -2 15 3 0 8 41 24 66 26 6 0 19 7 29 15 10 8
20 14 21 13 9 -6 64 11 64 19 0 5 4 7 9 3 5 -3 13 0 16 6 4 5 13 8 20 5 8 -3
15 -1 17 5 2 5 14 11 27 14 12 2 29 9 36 15 6 5 24 11 38 12 14 1 24 4 21 7
-7 7 57 32 67 25 5 -3 9 -1 9 4 0 5 10 13 23 17 12 4 24 8 27 9 3 1 15 7 28
14 12 7 22 9 22 5 0 -4 7 2 15 13 10 14 14 15 15 5 0 -11 4 -10 13 4 8 10 19
15 25 11 5 -3 12 -3 14 2 3 9 113 62 128 62 6 0 10 5 10 11 0 5 5 7 10 4 6 -3
10 -1 10 6 0 8 5 8 18 -2 9 -7 14 -9 10 -5 -9 11 44 45 90 58 17 5 32 13 32
18 0 6 9 10 20 10 11 0 20 5 20 11 0 5 4 8 9 5 5 -4 11 -3 13 1 1 5 40 26 85
49 45 23 79 45 75 49 -4 5 1 5 11 2 11 -4 20 -1 24 9 3 8 12 13 19 10 8 -3 14
-1 14 5 0 6 4 8 9 4 6 -3 14 3 20 12 6 10 11 15 11 11 0 -4 19 4 43 18 23 13
57 31 75 39 17 9 32 20 32 26 0 5 4 8 8 5 5 -3 18 4 30 14 12 11 25 20 31 20
5 0 33 16 62 35 30 19 59 35 66 35 7 0 13 7 13 15 0 8 6 12 14 9 8 -3 20 3 27
13 8 10 21 19 29 21 8 2 31 16 50 30 19 15 41 26 48 24 7 -2 11 3 10 10 -2 6
2 13 7 13 16 2 75 39 75 48 0 4 7 7 15 7 8 0 15 8 15 18 0 13 2 14 9 4 6 -11
10 -10 15 4 3 9 9 14 12 11 5 -5 27 10 60 41 8 7 14 10 14 5 0 -4 5 0 11 10 5
9 16 17 23 17 8 0 17 7 20 16 3 8 10 13 14 10 5 -3 23 9 40 26 18 16 32 27 32
24 0 -4 6 -1 14 6 8 7 11 17 8 22 -3 5 0 6 6 2 7 -4 24 4 39 18 15 15 31 26
36 26 4 0 18 11 31 25 13 13 26 22 29 18 4 -3 7 -1 7 5 0 7 7 12 16 12 8 0 13
3 11 8 -3 4 13 18 34 32 21 13 39 30 39 38 0 7 4 11 9 8 8 -5 43 20 92 66 11
10 22 18 27 18 4 0 13 9 20 20 7 12 17 18 21 15 5 -2 11 2 15 10 3 8 19 23 36
34 17 10 31 21 31 25 -1 3 2 7 7 8 4 0 12 8 18 16 6 8 16 12 22 8 8 -5 10 -1
5 11 -3 10 -3 15 1 11 10 -8 36 14 29 25 -2 4 1 7 7 7 6 0 24 14 40 30 17 17
30 27 30 23 0 -4 5 0 11 9 5 10 18 18 27 18 15 0 15 2 2 10 -13 8 -13 10 2 10
9 0 24 10 32 22 9 12 16 19 16 15 0 -4 6 -2 14 5 8 7 13 17 13 23 -1 5 3 9 8
10 6 0 32 21 57 48 25 26 51 47 58 47 6 0 9 4 5 9 -3 5 4 12 15 16 11 4 18 10
15 15 -3 5 4 11 15 15 11 4 19 9 17 13 -2 4 4 15 15 25 10 9 18 14 18 10 0 -4
6 2 14 12 8 11 12 23 9 28 -2 4 -1 6 4 5 4 -2 19 5 33 15 13 9 21 17 17 17 -4
0 -2 6 5 14 7 8 16 12 21 9 7 -4 11 12 8 30 -1 5 3 6 9 2 5 -3 13 1 16 9 3 9
10 13 15 10 5 -3 9 1 9 8 0 7 11 22 25 32 13 10 22 22 19 27 -3 5 1 9 8 10 7
0 29 20 48 44 19 24 41 44 48 44 7 1 10 6 7 11 -3 6 1 13 9 16 9 3 16 13 16
21 0 8 5 11 10 8 6 -3 10 -1 10 5 0 6 16 26 35 46 19 19 35 37 35 39 0 2 10
15 23 27 12 13 38 43 57 67 19 23 41 49 48 56 6 8 12 19 12 26 0 7 3 9 6 6 9
-8 64 65 57 76 -2 4 1 6 7 5 7 -2 17 6 23 16 7 11 19 27 27 36 8 9 24 30 35
46 11 15 28 36 38 46 9 10 17 23 17 28 0 6 4 10 9 10 5 0 13 9 16 20 4 11 11
17 17 14 7 -5 9 -2 6 8 -4 8 2 20 13 26 10 7 19 16 19 22 0 5 11 21 25 36 14
15 23 29 20 32 -3 3 4 11 15 19 11 8 20 21 20 29 0 9 5 12 12 8 8 -5 9 -2 5 9
-4 12 -1 17 10 17 9 0 13 3 10 6 -3 4 2 18 13 32 11 13 17 29 13 35 -3 6 -1 7
6 3 7 -5 16 4 24 23 7 17 16 29 18 26 3 -3 16 15 28 40 14 28 27 43 34 39 7
-4 9 -4 5 1 -9 9 10 47 20 41 5 -3 9 5 9 16 1 12 6 24 12 27 5 3 11 13 13 21
2 8 13 25 26 37 12 12 22 24 20 25 -4 6 54 98 63 98 5 0 9 9 9 20 0 11 5 20
10 20 6 0 10 5 10 11 0 6 9 24 21 40 11 16 17 29 12 29 -4 0 -3 4 3 8 13 8
124 199 124 213 0 5 5 9 10 9 6 0 10 7 10 15 0 8 5 15 10 15 6 0 9 3 8 8 -4
14 13 52 23 52 6 0 7 5 4 10 -3 6 -1 10 5 10 6 0 9 4 5 9 -3 5 0 15 7 23 17
17 63 111 60 121 -1 4 2 7 8 7 5 0 10 7 10 16 0 8 7 22 15 30 8 9 18 27 22 42
3 15 12 33 20 40 7 8 11 18 8 23 -4 5 -3 9 2 9 4 0 19 27 33 59 13 33 29 57
34 54 5 -4 6 -2 3 4 -4 5 9 43 28 82 19 40 35 79 35 87 0 8 5 14 11 14 6 0 9
7 5 15 -3 8 -1 15 5 15 6 0 8 4 5 9 -4 5 -2 11 2 13 5 1 23 41 42 88 18 47 37
90 42 97 6 7 7 17 3 23 -3 5 -1 10 4 10 6 0 11 4 11 9 0 5 4 20 9 33 5 13 9
26 10 30 1 4 13 33 26 63 14 31 25 62 25 70 0 8 4 15 10 15 5 0 7 7 4 15 -4 8
-1 15 6 15 6 0 9 4 5 9 -3 5 -1 12 5 16 6 4 8 11 5 16 -4 5 -1 9 5 9 6 0 9 4
5 10 -3 5 -1 17 4 27 9 17 21 48 26 66 2 4 3 8 5 10 2 3 11 40 12 55 1 6 5 12
10 12 5 0 6 5 3 10 -4 6 -2 16 3 23 10 13 26 67 24 80 -1 4 2 7 8 7 5 0 7 6 4
13 -2 7 2 32 10 55 8 23 13 42 9 42 -3 0 0 6 6 14 6 8 11 18 9 22 -1 5 4 32
11 60 7 29 14 60 16 70 2 11 4 21 5 24 1 3 2 9 1 14 -1 5 4 13 11 17 11 7 11
9 0 9 -8 0 -10 5 -5 13 4 6 8 15 9 20 1 4 2 8 4 10 1 1 3 11 4 22 2 11 6 34 9
50 8 36 18 92 22 120 1 11 3 20 4 20 2 0 5 17 7 39 7 56 8 60 19 68 6 5 5 8
-2 8 -14 0 -6 31 11 42 7 5 6 8 -3 8 -10 0 -11 3 -3 13 6 7 9 22 8 32 -2 11 1
26 7 33 6 8 6 12 -3 12 -9 0 -9 4 -2 13 10 11 24 95 25 145 1 12 4 22 7 22 3
0 5 15 5 33 -1 17 4 35 9 39 7 5 6 8 -2 8 -7 0 -10 5 -6 12 4 6 8 21 10 32 7
58 17 134 20 156 3 14 6 45 8 70 2 25 5 46 6 48 1 1 2 17 3 35 0 17 5 35 11
39 7 5 7 8 -2 8 -9 0 -10 5 -3 19 6 10 7 21 4 25 -3 3 0 6 8 6 11 0 11 2 2 8
-9 6 -10 17 -4 40 6 18 8 43 5 57 -2 14 -1 25 3 25 5 0 8 19 7 43 0 23 2 46 4
51 6 10 8 40 16 166 2 36 5 65 6 65 1 0 3 23 5 50 2 28 6 79 10 115 4 36 8 92
10 125 1 33 4 60 5 60 1 0 3 29 5 65 2 36 4 65 5 65 1 0 3 25 5 55 8 149 11
170 20 170 7 0 7 3 0 8 -10 7 -15 72 -6 72 4 0 7 24 7 53 1 28 5 97 9 152 9
121 14 227 17 317 1 45 5 65 12 61 8 -5 8 -3 0 8 -9 12 -12 53 -4 62 2 2 10
190 13 315 1 45 5 82 9 82 4 0 3 12 -2 26 -6 14 -7 31 -3 37 4 7 8 61 9 122 4
168 6 195 17 188 6 -4 7 -1 1 8 -12 20 -12 89 1 89 7 0 7 3 0 8 -13 9 -15 52
-2 52 5 0 4 6 -2 14 -7 8 -8 16 -4 19 4 3 8 34 7 69 0 34 5 66 10 70 7 5 8 8
1 8 -11 0 -12 81 -1 98 3 6 2 13 -2 16 -9 5 -10 34 -2 51 3 6 5 62 5 125 0 65
4 118 10 123 7 5 7 10 0 15 -15 11 -17 33 -4 48 6 8 7 14 2 14 -5 0 -9 9 -10
20 -1 11 2 18 6 15 7 -4 7 20 1 50 -1 6 -1 12 0 15 6 16 6 50 -1 50 -4 0 -4
12 -1 28 4 15 7 79 7 142 0 65 4 118 10 122 7 5 7 8 0 8 -9 0 -10 112 -1 168
2 12 -1 22 -5 22 -5 0 -5 10 -1 23 4 12 7 104 7 205 0 118 3 182 10 182 6 0 7
3 0 8 -13 9 -13 72 0 72 6 0 6 3 0 8 -14 9 -13 65 0 74 7 5 7 8 0 8 -6 0 -9
27 -9 62 1 35 3 63 4 63 1 0 3 10 4 23 2 12 -1 22 -5 22 -5 0 -4 11 1 24 6 17
5 26 -3 30 -8 3 -9 7 -2 13 12 10 13 33 2 51 -5 6 -4 12 1 12 12 0 10 33 -2
41 -5 4 -5 13 -1 20 11 16 12 70 2 76 -4 2 -4 10 0 16 9 15 11 1285 2 1299 -4
6 -3 24 1 39 5 18 5 29 -1 29 -6 0 -7 4 -4 10 11 17 14 50 5 50 -5 0 -5 13 0
30 5 19 5 28 -1 25 -5 -4 -6 3 -1 17 9 28 9 49 -1 65 -4 6 -3 14 3 18 6 4 7
13 1 23 -5 9 -7 26 -5 37 5 31 -9 45 -47 49 -19 2 -41 6 -49 10 -8 3 -31 8
-50 10 -19 3 -35 5 -35 6 0 3 -39 11 -62 13 -13 1 -23 5 -23 8 0 3 -6 6 -12 6
-30 2 -88 12 -96 17 -5 3 -25 6 -45 8 -21 1 -37 6 -37 11 0 5 -11 7 -25 5 -14
-3 -25 -1 -25 3 0 5 -13 7 -30 5 -16 -2 -27 0 -25 5 3 4 -7 8 -22 8 -36 0 -61
5 -69 14 -4 4 -23 7 -41 7 -19 0 -32 4 -29 9 4 5 -2 7 -13 4 -10 -3 -22 0 -26
7 -5 8 -10 8 -21 -1 -8 -6 -14 -7 -14 -2 0 5 -13 9 -30 8 -16 -1 -30 1 -30 5
0 7 -20 10 -62 10 -16 0 -28 3 -28 8 0 7 -34 13 -87 15 -13 1 -23 4 -23 7 0 4
-12 8 -27 8 -27 2 -68 9 -68 12 0 1 -13 3 -30 5 -41 5 -58 9 -74 19 -10 7 -12
5 -6 -3 6 -10 3 -11 -12 -3 -10 6 -39 12 -64 14 -24 2 -46 6 -49 9 -3 4 -28 9
-56 12 -29 2 -56 7 -61 10 -5 3 -31 8 -59 12 -85 10 -119 17 -126 29 -5 7 -8
7 -8 1 0 -6 -9 -11 -20 -11 -11 0 -20 3 -20 6 0 3 -19 7 -42 9 -23 1 -45 5
-48 9 -3 4 -20 8 -39 10 -25 3 -31 0 -26 -10 3 -7 1 -6 -7 2 -7 9 -24 15 -38
14 -14 -1 -29 1 -35 5 -5 3 -21 6 -35 7 -14 0 -31 4 -38 8 -7 4 -16 4 -22 1
-5 -3 -15 -3 -22 1 -13 8 -62 16 -110 18 -16 0 -28 4 -28 8 0 5 -5 8 -11 8 -5
0 -7 -6 -3 -12 6 -9 3 -9 -9 0 -9 8 -21 11 -26 8 -5 -4 -13 -2 -16 4 -5 8 -11
7 -21 -1 -11 -9 -14 -9 -14 1 0 7 -8 10 -20 7 -11 -3 -20 -2 -20 3 0 4 -12 7
-27 8 -16 0 -30 1 -33 2 -3 1 -18 3 -35 5 -16 1 -30 3 -30 4 0 2 -8 4 -17 6
-10 2 -18 -2 -18 -8 0 -9 -2 -9 -8 -1 -7 11 -12 13 -74 16 -21 2 -38 5 -38 8
0 3 -11 7 -26 8 -18 1 -23 -2 -18 -11 6 -9 4 -9 -8 1 -9 7 -35 15 -59 18 -24
3 -59 7 -78 9 -18 2 -36 7 -39 10 -3 2 -11 0 -18 -6 -8 -6 -14 -7 -18 0 -4 6
-13 8 -21 4 -8 -3 -15 -1 -15 4 0 5 -12 9 -27 10 -16 0 -47 1 -71 2 -29 1 -41
5 -36 12 4 8 0 8 -15 0 -12 -7 -21 -8 -21 -2 0 10 -19 9 -37 -2 -7 -5 -13 -4
-13 1 0 14 -45 21 -64 10 -10 -6 -16 -5 -16 1 0 6 -10 11 -22 11 -13 0 -41 2
-63 5 -22 3 -56 6 -76 8 -19 2 -41 7 -47 11 -6 3 -13 2 -17 -4 -4 -6 -11 -8
-16 -4 -13 7 -43 12 -111 18 -31 2 -61 7 -67 11 -6 3 -11 0 -11 -7 0 -8 -3 -9
-8 -3 -4 6 -32 12 -62 14 -30 2 -65 4 -77 5 -12 1 -25 5 -29 8 -3 4 -17 3 -30
-2 -13 -5 -24 -6 -24 -1 0 4 -24 9 -54 10 -58 2 -105 9 -118 17 -4 3 -8 0 -8
-6 0 -6 -5 -8 -11 -5 -10 7 -110 16 -196 19 -24 0 -43 5 -43 10 0 5 -7 3 -15
-4 -8 -7 -15 -8 -15 -3 0 4 -28 9 -62 11 -35 1 -99 4 -143 7 -44 3 -125 8
-180 11 -145 7 -149 8 -157 19 -5 6 -8 6 -8 -2 0 -12 -17 -12 -37 0 -8 5 -13
3 -13 -4 0 -8 -4 -9 -13 0 -10 8 -17 7 -25 -1 -9 -9 -12 -9 -12 1 0 11 -3 11
-15 1 -8 -7 -15 -8 -15 -2 0 5 -26 9 -60 8 -34 0 -60 3 -60 9 0 6 -5 3 -10 -5
-5 -8 -10 -10 -10 -5 0 6 -39 10 -98 10 -53 0 -100 5 -104 10 -5 6 -8 5 -8 -3
0 -8 -5 -10 -12 -5 -19 11 -38 13 -38 2 0 -5 -11 -4 -26 1 -16 7 -32 7 -43 0
-10 -5 -22 -6 -25 -2 -4 4 -49 7 -100 8 -51 0 -98 4 -104 8 -6 3 -13 2 -16 -2
-3 -5 -25 -6 -50 -2 -24 4 -52 3 -60 -2 -9 -5 -16 -5 -16 -1 0 10 -811 10
-826 0 -6 -3 -14 -4 -17 0 -7 6 -86 10 -92 4z"/>
</g>
</svg>
